<svg xmlns="http://www.w3.org/2000/svg" xml:space="preserve" width="342.445" height="342.58" viewBox="0 0 90.605 90.641"><path d="M98.303 146.107c-32.813-5.788-48.528-43.866-29.266-70.911 21.342-29.967 68.06-22.975 79.74 11.934 10.703 31.992-17.386 64.814-50.474 58.977zm27.946-10.108c3.671-1.373 6.668-5.303 7.07-9.274.438-4.314-4.067-5.363-4.857-1.13-.475 2.54-1.347 4.07-2.914 5.107-2.297 1.52-39.486 1.672-38.496.156.352-.54 10.747-14.396 23.1-30.791 26.402-35.045 24.788-32.51 21.547-33.852-2.051-.85-44.014-.328-45.96.57-6.335 2.93-9.884 13.151-4.426 12.752 1.628-.12 2.18-.804 2.543-3.155.252-1.627 1.447-3.41 2.976-4.441 1.206-.813 38.509-1.334 38.467-.538-.008.146-10.486 14.147-23.284 31.114-24.6 32.613-24.165 31.965-22.497 33.52 1.24 1.154 43.636 1.12 46.73-.038z" style="fill:#fff" transform="translate(-60.617 -56.217)"/></svg>